#define xedit_width 43
#define xedit_height 72
static char xedit_bits[] = {
   0x00, 0x00, 0x00, 0x00, 0x00, 0xf8, 0x00, 0xff, 0x7f, 0x00, 0x00, 0xf8,
   0x80, 0x01, 0xc0, 0x00, 0x00, 0xf8, 0xc0, 0xfc, 0x9f, 0x00, 0x00, 0xf8,
   0x40, 0x18, 0x98, 0x00, 0x00, 0xf8, 0x40, 0xfc, 0x7f, 0x00, 0x00, 0xf8,
   0x80, 0xe8, 0x36, 0x00, 0x00, 0xf8, 0x00, 0xef, 0x12, 0x00, 0x00, 0xf8,
   0x00, 0xe8, 0x10, 0x00, 0x00, 0xf8, 0x00, 0xc8, 0x19, 0x00, 0x00, 0xf8,
   0x00, 0xd8, 0x1b, 0x00, 0x00, 0xf8, 0x00, 0xdc, 0x1f, 0x00, 0x00, 0xf8,
   0x00, 0x7e, 0xf7, 0x01, 0x00, 0xf8, 0x80, 0xcf, 0xdb, 0x03, 0x00, 0xf8,
   0xc0, 0x9c, 0x5f, 0x05, 0x00, 0xf8, 0x20, 0x94, 0xd0, 0x09, 0x00, 0xf8,
   0x30, 0xac, 0xf0, 0x19, 0x00, 0xf8, 0x28, 0x7c, 0xf1, 0xff, 0x1f, 0xf8,
   0x48, 0xd4, 0x71, 0x00, 0x64, 0xf8, 0x0c, 0xb7, 0x73, 0x00, 0x04, 0xf8,
   0x0c, 0x74, 0x73, 0x00, 0x54, 0xf8, 0x0c, 0x54, 0x73, 0x00, 0x14, 0xf9,
   0x0c, 0x94, 0x56, 0x00, 0xa4, 0xf8, 0x04, 0x94, 0x5d, 0x00, 0x04, 0xfa,
   0x14, 0x14, 0x5f, 0x00, 0x1c, 0xfc, 0x24, 0xfc, 0x7f, 0x00, 0x6c, 0xf9,
   0x04, 0xb3, 0x44, 0x00, 0x3c, 0xfc, 0x04, 0x02, 0x44, 0x00, 0xbc, 0xf9,
   0xec, 0x12, 0x45, 0x00, 0x7c, 0xf8, 0x08, 0x50, 0xc5, 0xff, 0xff, 0xff,
   0x08, 0x50, 0xc5, 0x85, 0x11, 0xf8, 0x10, 0x51, 0x24, 0x8d, 0x0d, 0xf8,
   0xa0, 0x40, 0x1f, 0xed, 0x03, 0xf8, 0xc0, 0xc0, 0x1d, 0xbd, 0x01, 0xf8,
   0x80, 0x7f, 0x15, 0x0d, 0x00, 0xf8, 0x00, 0x01, 0x15, 0x0d, 0x00, 0xf8,
   0x00, 0x01, 0x14, 0x1d, 0x00, 0xf8, 0x00, 0x21, 0x14, 0x1d, 0x00, 0xf8,
   0x00, 0x01, 0x14, 0x15, 0x00, 0xf8, 0x00, 0x11, 0x14, 0x15, 0x00, 0xf8,
   0x00, 0x03, 0x14, 0x15, 0x00, 0xf8, 0x00, 0x0b, 0x14, 0x35, 0x00, 0xf8,
   0x00, 0x02, 0x14, 0x35, 0x00, 0xf8, 0x00, 0x06, 0x15, 0x25, 0x00, 0xf8,
   0x00, 0x02, 0x35, 0x25, 0x00, 0xf8, 0x00, 0x02, 0x35, 0x25, 0x00, 0xf8,
   0x00, 0x02, 0x55, 0x25, 0x00, 0xf8, 0x00, 0x02, 0xd4, 0x65, 0x00, 0xf8,
   0x00, 0x02, 0x94, 0x45, 0x00, 0xf8, 0x00, 0x82, 0x94, 0x45, 0x00, 0xf8,
   0x00, 0xfe, 0xfb, 0x7f, 0x00, 0xf8, 0x00, 0x02, 0xfc, 0xc3, 0x00, 0xf8,
   0x00, 0xfe, 0x87, 0xff, 0x00, 0xf8, 0x00, 0x10, 0x02, 0x42, 0x00, 0xf8,
   0x00, 0x10, 0x02, 0x42, 0x00, 0xf8, 0x00, 0x10, 0x03, 0x62, 0x00, 0xf8,
   0x00, 0x18, 0x01, 0x62, 0x00, 0xf8, 0x00, 0x18, 0x01, 0x62, 0x00, 0xf8,
   0x00, 0x18, 0x01, 0x22, 0x00, 0xf8, 0x00, 0x18, 0x01, 0x22, 0x00, 0xf8,
   0x00, 0x18, 0x01, 0x22, 0x00, 0xf8, 0x00, 0x18, 0x01, 0x22, 0x00, 0xf8,
   0x00, 0x18, 0x01, 0x62, 0x00, 0xf8, 0x00, 0x10, 0x03, 0x62, 0x00, 0xf8,
   0x00, 0x10, 0x02, 0x42, 0x00, 0xf8, 0x00, 0x10, 0x02, 0xc2, 0x00, 0xf8,
   0x00, 0x10, 0x07, 0xe6, 0x00, 0xf8, 0x00, 0xf0, 0x04, 0xb4, 0x01, 0xf8,
   0x00, 0x60, 0x08, 0x0c, 0x03, 0xf8, 0x00, 0x20, 0x18, 0x0c, 0x02, 0xf8,
   0x00, 0xa0, 0x33, 0x6c, 0x06, 0xf8, 0x00, 0xc0, 0x3f, 0xfc, 0x07, 0xf8};
